<?xml version="1.0" encoding="utf-8"?>
<!-- Generator: Adobe Illustrator 23.0.3, SVG Export Plug-In . SVG Version: 6.00 Build 0)  -->
<svg version="1.1" id="elements" xmlns="http://www.w3.org/2000/svg" xmlns:xlink="http://www.w3.org/1999/xlink" x="0px" y="0px"
	 viewBox="0 0 395.9 109.5" style="enable-background:new 0 0 395.9 109.5;" xml:space="preserve">
<style type="text/css">
	.st0{fill:#FFFFFF;}
</style>
<g>
	<path class="st0" d="M146.1,41.8c4.8,0,8.7,1.6,11.7,4.8c3,3.2,4.4,7.4,4.4,12.5v24.2h-10.7V61.5c0-2.9-0.7-5.3-2.2-7.1
		c-1.4-1.8-3.5-2.8-6.1-2.8c-3,0-5.5,1.1-7.6,3.3c-2.1,2.2-3.2,4.9-3.2,8.2v20.1h-10.8V12.8h10.8v34.7
		C136.2,43.7,140.7,41.8,146.1,41.8z"/>
	<path class="st0" d="M207,61.6c0,1.7-0.1,3.4-0.4,5l-30.1,0.1c0.7,2.8,2.1,5,4.2,6.7c2,1.7,4.6,2.6,7.7,2.6c3.6,0,7.3-1.4,11.3-4.3
		l5.7,6.2c-4.5,4.4-10.3,6.5-17.4,6.5c-6.5,0-11.8-2-15.9-6c-4.1-4-6.1-9.2-6.1-15.5c0-6.2,2-11.3,6-15.3c4-3.9,9.1-5.9,15.4-5.9
		c6,0,10.8,1.8,14.3,5.4C205.3,50.8,207,55.6,207,61.6z M187.3,50.3c-2.6,0-4.8,0.7-6.7,2.2c-1.9,1.4-3.3,3.4-3.9,5.9h20.4
		c-0.5-2.6-1.7-4.5-3.4-5.9C191.9,51,189.8,50.3,187.3,50.3z"/>
	<path class="st0" d="M240.5,43h10.8v41.4c0,7-1.9,12.4-5.6,16.4c-3.8,3.9-9,5.9-15.7,5.9c-8.4,0-14.8-2.9-19.1-8.8l7.8-6.9
		c2.8,3.6,6.6,5.4,11.5,5.4c3.3,0,5.9-1.1,7.7-3.2c1.8-2.1,2.8-5.1,2.8-8.8v-5.6c-3.6,3.8-8.2,5.7-13.6,5.7c-4.8,0-8.6-1.6-11.5-4.8
		c-2.9-3.2-4.4-7.4-4.4-12.5V43h10.7v21.8c0,2.9,0.7,5.3,2.1,7.1c1.4,1.8,3.4,2.8,5.9,2.8c3,0,5.5-1.1,7.6-3.3
		c2.1-2.2,3.2-4.9,3.2-8.2V43z"/>
	<path class="st0" d="M287.2,43H298v41c0,6.9-2,12.4-6,16.5c-4,4.1-9.5,6.1-16.4,6.1c-8.5,0-15-2.5-19.5-7.5l6-7.5
		c3.8,3.3,8.3,4.9,13.5,4.9c7.8,0,11.7-4.2,11.7-12.6v-4.9c-3.1,3.6-7.2,5.4-12.4,5.4c-5.7,0-10.5-2-14.5-6c-3.9-4-5.9-9.1-5.9-15.3
		c0-6.2,2-11.3,5.9-15.3c3.9-4,8.7-6,14.5-6c5.2,0,9.3,1.8,12.4,5.4V43z M268.4,71.6c2.2,2,4.8,3,7.9,3c3.1,0,5.8-1,8.1-3.1
		c2.3-2,3.4-4.9,3.4-8.5c0-3.6-1.1-6.3-3.4-8.4c-2.3-2-4.9-3-8-3c-3.1,0-5.7,1-8,3c-2.2,2-3.3,4.8-3.3,8.5
		C265.1,66.8,266.2,69.6,268.4,71.6z"/>
	<path class="st0" d="M315.4,51.3c3.9-6,9.5-9.1,16.7-9.1v10.9h-2.6c-3.8,0-7,1.2-9.9,3.5c-2.8,2.3-4.2,5.7-4.2,10.1v16.6h-10.8V43
		h10.8V51.3z"/>
	<path class="st0" d="M336.4,83.3V43h10.8v40.3H336.4z"/>
	<path class="st0" d="M388.8,78.5c-4.1,4-9.3,6-15.6,6c-6.3,0-11.5-2-15.6-6c-4.1-4-6.1-9.1-6.1-15.3c0-6.2,2.1-11.3,6.2-15.3
		c4.1-4,9.3-6,15.7-6c6.3,0,11.5,2,15.6,6c4.1,4,6.1,9.1,6.1,15.3C394.9,69.3,392.9,74.4,388.8,78.5z M373.3,74.5
		c3.2,0,5.8-1.1,7.8-3.2c2-2.1,3.1-4.9,3.1-8.2c0-3.3-1-6-3.1-8.2c-2.1-2.1-4.7-3.2-7.9-3.2c-3.2,0-5.8,1.1-7.9,3.2
		c-2.1,2.1-3.1,4.8-3.1,8.1c0,3.4,1,6.1,3.1,8.3C367.4,73.5,370.1,74.5,373.3,74.5z"/>
</g>
<path class="st0" d="M346.8,31.9c-1.3,1.3-3,1.9-5,1.9c-2.1,0-3.7-0.6-5-1.9c-1.2-1.2-1.9-2.9-1.9-4.9c0-2,0.6-3.7,1.9-4.9
	c1.3-1.3,2.9-1.9,4.9-1.9c2.1,0,3.8,0.6,5,1.9c1.3,1.3,1.9,2.9,1.9,4.9C348.7,29,348.1,30.7,346.8,31.9z"/>
<path class="st0" d="M54.5,1.6C25,1.6,1,25.5,1,55c0,29.5,23.9,53.4,53.4,53.4c29.5,0,53.4-23.9,53.4-53.4
	C107.9,25.5,84,1.6,54.5,1.6z M84.7,75.4L84.7,75.4c-0.5,6.1-3.9,22.1-26.5,24c-1,0.1-1.9,0.1-2.8,0.1c-14.7,0-23.2-10.1-23.6-10.6
	c-1.1-1.3-0.9-3.2,0.4-4.3c1.3-1.1,3.2-0.9,4.3,0.4c0.3,0.4,8.1,9.4,21.2,8.3C75,91.9,78.2,81.1,78.6,75.1c-4.9-0.8-9-3.6-11.9-8.1
	c-0.7-1.1-1.8-1.7-3-1.7H46.4c-11.8,0-21.3-9.6-21.3-21.3v-8.3c0-11.8,9.6-21.3,21.3-21.3h16.9c11.8,0,21.3,9.6,21.3,21.3V75.4z
	 M55.9,84c5,0,9.6-1.9,13.1-5.4c0.6-0.6,1.3-0.9,2.1-0.9c0.8,0,1.5,0.3,2.1,0.9s0.9,1.3,0.9,2.1c0,0.8-0.3,1.5-0.9,2.1
	c-4.6,4.6-10.8,7.1-17.3,7.1c-6.5,0-12.7-2.5-17.3-7.1c-0.6-0.6-0.9-1.3-0.9-2.1c0-0.8,0.3-1.5,0.9-2.1c0.6-0.6,1.3-0.9,2.1-0.9
	c0.8,0,1.5,0.3,2.1,0.9C46.3,82.1,50.9,84,55.9,84z M45.3,72c0.6-0.6,1.3-0.9,2.1-0.9c0.8,0,1.5,0.3,2.1,0.9c1.7,1.7,4,2.7,6.5,2.7
	c2.4,0,4.7-0.9,6.5-2.7c0.6-0.6,1.3-0.9,2.1-0.9c0.8,0,1.5,0.3,2.1,0.9c1.1,1.1,1.1,3,0,4.1c-2.8,2.8-6.6,4.4-10.6,4.4
	c-4,0-7.8-1.6-10.6-4.4C44.1,75,44.1,73.1,45.3,72z"/>
<path class="st0" d="M69,34.9c0,2.1-1.7,3.8-3.8,3.8c-2.1,0-3.8-1.7-3.8-3.8c0-2.1,1.7-3.8,3.8-3.8C67.3,31.1,69,32.8,69,34.9z"/>
</svg>
